<?xml version="1.0" standalone="no"?>
<!DOCTYPE svg PUBLIC "-//W3C//DTD SVG 20010904//EN"
 "http://www.w3.org/TR/2001/REC-SVG-20010904/DTD/svg10.dtd">
<svg version="1.0" xmlns="http://www.w3.org/2000/svg"
 width="225.000000pt" height="225.000000pt" viewBox="0 0 225.000000 225.000000"
 preserveAspectRatio="xMidYMid meet">

<g transform="translate(0.000000,225.000000) scale(0.100000,-0.100000)"
fill="royalblue" stroke="none">
<path d="M1055 2239 c-155 -21 -316 -82 -446 -169 -93 -62 -225 -202 -283
-298 -102 -172 -151 -393 -127 -576 15 -115 59 -248 112 -338 77 -131 233
-272 363 -328 26 -11 50 -20 53 -20 3 0 -23 21 -58 47 -271 204 -379 410 -379
721 0 139 21 236 75 351 123 258 360 436 670 503 96 20 304 15 409 -11 393
-96 694 -417 791 -844 l14 -62 -6 75 c-13 169 -81 356 -184 505 -68 99 -215
237 -318 299 -93 56 -228 109 -333 131 -93 20 -263 27 -353 14z"/>
<path d="M456 2115 c-194 -134 -352 -357 -415 -585 -100 -365 2 -759 265
-1025 192 -194 436 -296 707 -296 415 1 764 266 857 651 22 92 29 307 10 295
-5 -3 -10 -20 -10 -37 0 -56 -41 -232 -71 -304 -98 -235 -336 -429 -602 -489
-79 -18 -240 -21 -326 -5 -482 87 -835 568 -781 1063 29 259 140 486 332 679
48 49 86 88 85 87 -1 0 -24 -15 -51 -34z"/>
<path d="M1071 2019 c-66 -13 -139 -38 -206 -72 -58 -29 -148 -88 -142 -93 1
-2 51 17 111 41 191 76 355 92 526 49 90 -22 273 -113 345 -171 351 -285 415
-815 146 -1223 -49 -75 -173 -203 -246 -255 -222 -158 -506 -223 -785 -181
-52 8 -124 24 -160 35 -62 20 -97 21 -49 2 13 -5 46 -19 72 -30 139 -60 381
-88 545 -61 552 88 933 568 890 1122 -31 402 -310 737 -690 828 -89 21 -271
26 -357 9z"/>
</g>
</svg>
