<?xml version="1.0" standalone="no"?>
<!DOCTYPE svg PUBLIC "-//W3C//DTD SVG 20010904//EN"
 "http://www.w3.org/TR/2001/REC-SVG-20010904/DTD/svg10.dtd">
<svg version="1.0" xmlns="http://www.w3.org/2000/svg"
 width="170.000000pt" height="38.000000pt" viewBox="0 0 170.000000 38.000000"
 preserveAspectRatio="xMidYMid meet">

<g transform="translate(0.000000,38.000000) scale(0.100000,-0.100000)"
fill="#fff" stroke="none">
<path d="M889 254 c-42 -77 -124 -174 -147 -174 -19 0 -14 28 14 76 16 28 33
44 45 44 10 0 19 5 19 10 0 6 -6 10 -13 10 -7 0 -13 11 -12 27 0 37 -21 40
-39 5 -8 -16 -24 -32 -36 -35 -11 -3 -18 -11 -15 -19 2 -7 -18 -37 -45 -67
-52 -57 -80 -63 -80 -18 0 18 8 28 30 37 34 14 55 44 46 66 -9 24 -26 16 -41
-20 -20 -48 -34 -53 -41 -16 -4 17 -10 33 -15 36 -5 2 -44 -32 -88 -76 -60
-61 -86 -81 -102 -78 -35 5 -32 21 8 43 50 28 81 70 66 93 -22 33 -63 17 -135
-55 -37 -37 -71 -64 -75 -60 -4 4 3 28 15 52 40 83 25 101 -42 51 l-45 -35 -3
32 c-2 18 -7 32 -12 32 -4 0 -25 -20 -45 -45 -20 -25 -28 -39 -18 -31 23 18
22 1 -3 -49 -45 -89 -10 -86 60 4 53 70 79 76 48 12 -20 -41 -20 -76 0 -76 5
0 30 16 56 35 45 35 46 36 46 12 0 -13 8 -32 19 -41 30 -27 69 -10 137 61 33
34 66 63 72 63 20 0 13 -39 -8 -50 -27 -15 -53 -57 -46 -75 8 -21 36 -7 36 19
0 22 17 46 32 46 4 0 8 -11 8 -24 0 -13 7 -29 15 -36 13 -10 22 -6 58 26 24
22 52 50 61 64 14 20 17 21 13 5 -3 -11 -11 -35 -18 -52 -12 -29 -11 -35 3
-49 15 -15 19 -15 52 5 20 13 56 46 81 74 49 56 54 56 29 3 -19 -38 -13 -80
12 -90 8 -3 28 1 45 9 36 19 37 24 4 17 -37 -7 -33 18 20 131 49 105 52 119
31 136 -12 10 -22 -2 -57 -65z m-469 -78 c0 -16 -26 -46 -41 -46 -13 0 -11 13
7 38 17 25 34 29 34 8z"/>
<path d="M1484 251 c-10 -17 -25 -32 -33 -33 -9 -2 -16 -11 -16 -20 0 -9 -22
-40 -50 -69 -59 -62 -71 -50 -30 30 21 42 24 55 14 73 l-11 21 -18 -23 c-10
-13 -22 -20 -29 -15 -25 15 -60 -7 -134 -81 -56 -55 -82 -75 -99 -72 -33 5
-32 24 2 38 33 14 80 63 80 85 0 21 -27 37 -52 29 -12 -3 -48 -32 -80 -62 -32
-30 -60 -53 -63 -50 -3 3 2 19 11 36 16 34 16 72 -1 74 -19 3 -55 -64 -55
-102 0 -35 2 -37 28 -32 15 2 33 9 40 15 9 7 12 3 12 -15 0 -14 9 -33 19 -42
24 -22 52 -15 103 25 44 34 48 35 41 9 -5 -20 12 -50 27 -50 5 0 22 12 39 26
29 24 31 24 31 6 0 -31 30 -36 59 -10 32 28 64 62 86 91 15 20 16 21 11 2 -2
-11 -10 -35 -17 -52 -12 -29 -11 -35 3 -50 16 -15 19 -15 45 2 37 23 83 66 83
78 0 4 -13 -1 -29 -12 -35 -25 -41 -26 -41 -4 0 30 50 103 70 103 11 0 20 5
20 10 0 6 -6 10 -13 10 -7 0 -13 11 -12 27 0 37 -20 39 -41 4z m-354 -74 c0
-17 -38 -53 -46 -44 -8 8 23 57 36 57 6 0 10 -6 10 -13z m180 -3 c0 -21 -56
-94 -72 -94 -17 0 -7 40 18 69 23 27 54 42 54 25z"/>
</g>
</svg>
