<?xml version="1.0" standalone="no"?>
<!DOCTYPE svg PUBLIC "-//W3C//DTD SVG 20010904//EN"
 "http://www.w3.org/TR/2001/REC-SVG-20010904/DTD/svg10.dtd">
<svg version="1.0" xmlns="http://www.w3.org/2000/svg"
 width="1787.000000pt" height="432.000000pt" viewBox="0 0 1787.000000 432.000000"
 preserveAspectRatio="xMidYMid meet">

<g transform="translate(0.000000,432.000000) scale(0.100000,-0.100000)"
fill="#6937f4" stroke="">
<path d="M3480 2275 l0 -925 156 0 156 0 -5 578 c-3 423 -9 621 -21 741 -9 91
-15 166 -13 167 1 2 122 -331 269 -739 l266 -742 221 -3 221 -2 0 925 0 925
-156 0 -156 0 5 -567 c5 -530 17 -796 43 -903 18 -78 -35 62 -276 727 l-267
738 -222 3 -221 2 0 -925z"/>
<path d="M5100 2275 l0 -925 500 0 500 0 0 130 0 130 -325 0 -325 0 2 278 3
277 263 3 262 2 0 125 0 125 -265 0 -265 0 2 263 3 262 301 3 300 2 12 88 c7
48 15 104 18 125 l7 37 -497 0 -496 0 0 -925z"/>
<path d="M6449 2768 l219 -433 -237 -490 -237 -490 175 -3 c96 -1 178 1 182 5
3 5 75 172 159 373 84 201 156 368 159 373 4 4 79 -162 167 -370 l160 -378
187 -3 187 -2 -49 97 c-27 54 -137 279 -245 500 l-196 402 186 358 c102 196
201 387 220 425 l34 68 -177 0 -178 0 -139 -315 c-76 -174 -142 -318 -146
-320 -3 -2 -67 139 -142 313 l-135 317 -187 3 -187 2 220 -432z"/>
<path d="M7590 3065 l0 -135 225 0 225 0 0 -790 0 -790 170 0 170 0 0 790 0
790 214 0 213 0 18 131 c10 72 21 125 25 117 4 -7 117 -421 251 -920 l244
-908 210 0 210 0 241 923 241 922 -170 3 c-93 1 -171 1 -173 -1 -2 -1 -79
-346 -171 -764 -92 -419 -170 -760 -173 -757 -3 3 -84 346 -180 762 l-175 757
-808 3 -807 2 0 -135z"/>
<path d="M10430 2275 l0 -925 170 0 170 0 0 925 0 925 -170 0 -170 0 0 -925z"/>
<path d="M11150 2275 l0 -925 495 0 495 0 0 130 0 130 -325 0 -325 0 2 278 3
277 263 3 262 2 0 125 0 125 -265 0 -265 0 2 263 3 262 301 3 301 2 12 88 c7
48 15 104 18 125 l6 37 -492 0 -491 0 0 -925z"/>
<path d="M12280 3191 c0 -12 279 -1790 285 -1818 5 -23 5 -23 225 -23 l219 0
6 33 c3 17 57 347 120 731 100 608 125 747 125 699 0 -6 52 -336 115 -733 63
-397 115 -724 115 -726 0 -2 101 -4 225 -4 l224 0 6 33 c3 17 68 426 145 907
77 481 142 883 144 893 4 16 -9 17 -158 17 l-162 0 -52 -377 c-136 -979 -165
-1183 -169 -1179 -2 2 -58 340 -123 752 -66 412 -123 761 -126 777 l-6 27
-181 0 -182 0 -124 -763 c-68 -419 -127 -770 -130 -780 -4 -10 -52 333 -106
762 l-99 781 -168 0 c-92 0 -168 -4 -168 -9z"/>
</g>
</svg>
