<?xml version="1.0" standalone="no"?>
<!DOCTYPE svg PUBLIC "-//W3C//DTD SVG 20010904//EN"
 "http://www.w3.org/TR/2001/REC-SVG-20010904/DTD/svg10.dtd">
<svg version="1.0" xmlns="http://www.w3.org/2000/svg"
 width="512.000000pt" height="512.000000pt" viewBox="0 0 512.000000 512.000000"
 preserveAspectRatio="xMidYMid meet">

<g transform="translate(0.000000,512.000000) scale(0.100000,-0.100000)"
fill="#000000" stroke="none">
<path d="M2447 3019 c-159 -37 -309 -189 -346 -350 -13 -56 -13 -162 0 -218
18 -81 61 -154 128 -222 97 -97 197 -139 331 -139 134 0 234 42 331 139 97 97
139 197 139 331 0 134 -42 234 -139 331 -68 67 -141 110 -222 128 -53 13 -170
12 -222 0z m103 -107 c0 -22 -3 -87 -7 -146 -6 -99 -7 -105 -18 -74 -7 18 -33
77 -59 131 -50 106 -50 101 18 117 61 15 66 13 66 -28z m127 17 c23 -8 22 -9
-24 -106 -25 -54 -51 -113 -58 -131 -11 -31 -12 -25 -18 74 -4 59 -7 125 -7
146 l0 40 43 -7 c23 -4 52 -11 64 -16z m-247 -86 c13 -38 36 -98 50 -135 l27
-67 -103 97 c-58 53 -103 101 -101 107 4 12 78 64 93 65 6 0 21 -30 34 -67z
m344 39 c22 -15 41 -32 43 -37 2 -6 -43 -54 -101 -107 l-103 -97 27 67 c14 37
37 97 50 135 13 37 28 67 34 67 6 -1 29 -13 50 -28z m-391 -167 l98 -104 -53
23 c-29 12 -90 36 -135 51 -46 16 -83 32 -83 37 0 18 57 98 70 98 3 0 50 -47
103 -105z m499 59 c15 -21 27 -44 28 -50 0 -6 -48 -28 -107 -49 -60 -21 -121
-44 -137 -53 -20 -10 2 19 69 92 55 58 104 105 110 103 5 -2 22 -21 37 -43z
m-454 -179 c31 -11 25 -12 -74 -18 -59 -4 -125 -7 -146 -7 l-40 0 7 43 c16 94
11 93 122 40 54 -25 113 -51 131 -58z m512 39 c7 -31 9 -58 6 -61 -2 -3 -66
-2 -141 2 l-136 7 123 58 c68 31 126 55 130 53 4 -2 12 -28 18 -59z m-328 -21
c23 -20 24 -80 1 -105 -20 -23 -80 -24 -105 -1 -23 20 -24 80 -1 105 20 23 80
24 105 1z m-258 -70 c99 -6 105 -7 74 -18 -18 -7 -77 -33 -131 -58 -111 -53
-106 -54 -122 41 l-7 42 40 0 c21 0 87 -3 146 -7z m591 -35 c-16 -96 -8 -94
-148 -30 l-123 57 70 6 c39 3 102 6 139 7 l69 2 -7 -42z m-561 -103 c-54 -58
-103 -104 -109 -102 -13 4 -64 78 -65 93 0 6 42 25 93 43 50 17 110 40 132 51
22 10 41 19 43 19 2 1 -41 -46 -94 -104z m419 40 c59 -21 107 -43 107 -49 -1
-15 -52 -89 -65 -93 -6 -2 -55 45 -110 103 -67 73 -89 102 -69 92 16 -9 77
-32 137 -53z m-322 -32 c-15 -38 -38 -98 -51 -135 -13 -38 -27 -68 -32 -68
-13 0 -85 47 -94 61 -4 7 32 49 97 110 57 54 105 98 105 99 1 0 -10 -30 -25
-67z m336 -138 c-4 -12 -78 -64 -93 -65 -6 0 -21 30 -34 68 -13 37 -36 97 -50
134 l-27 67 103 -97 c58 -53 103 -101 101 -107z m-268 -43 l1 -64 -42 7 c-95
16 -94 11 -41 122 25 54 51 113 57 131 10 31 11 28 18 -50 3 -46 6 -112 7
-146z m104 65 c53 -111 54 -106 -40 -122 l-43 -7 0 40 c0 21 3 87 7 146 6 99
7 105 18 74 7 -18 33 -77 58 -131z"/>
<path d="M2530 2585 c-26 -32 13 -81 48 -59 34 22 22 74 -18 74 -10 0 -23 -7
-30 -15z"/>
</g>
</svg>
